<svg width="68" height="62" viewBox="0 0 68 62" fill="none" xmlns="http://www.w3.org/2000/svg">
<path d="M41.3334 23.3991C37.4942 23.402 32.6767 28.2114 32.1729 31.7897C31.6172 35.7416 39.9226 39.8396 41.292 39.5811C42.6614 39.3227 36.5676 32.5087 39.2873 30.1346C42.3068 27.4998 48.0389 30.7697 48.685 29.277C49.3208 27.8084 45.771 23.396 41.3334 23.3991Z" stroke="#02957D" stroke-opacity="0.08" stroke-width="0.662773" stroke-miterlimit="10"/>
<path d="M40.6596 22.4765C36.4442 21.982 31.0295 28.0415 30.6663 32.1465C30.256 36.7966 39.7556 40.4151 41.3829 40.5722C42.7853 40.7083 37.4723 33.1918 40.3832 30.1085C43.5448 26.758 49.0732 29.0798 49.2027 27.9572C49.3404 26.7531 45.6038 23.0609 40.6596 22.4765Z" stroke="#02957D" stroke-opacity="0.08" stroke-width="0.662773" stroke-miterlimit="10"/>
<path d="M39.9844 21.5555C35.4007 20.5621 29.3845 27.873 29.1592 32.5031C28.8959 37.857 39.5248 40.9399 41.4724 41.5647C42.8898 42.0158 38.3797 33.8837 41.4782 30.0806C44.7833 26.0248 50.2518 27.4066 49.7158 26.6443C49.5172 25.7231 45.4481 22.7383 39.9844 21.5555Z" stroke="#02957D" stroke-opacity="0.08" stroke-width="0.662773" stroke-miterlimit="10"/>
<path d="M39.3116 20.6295C34.3572 19.1479 27.7448 27.701 27.6562 32.8581C27.5487 38.9089 39.0459 42.1853 41.5665 42.5549C43.1456 42.786 39.295 34.576 42.5758 30.054C46.0289 25.2953 51.361 25.7245 50.2341 25.3281C49.6155 24.679 45.2889 22.4193 39.3116 20.6295Z" stroke="#02957D" stroke-opacity="0.08" stroke-width="0.662773" stroke-miterlimit="10"/>
<path d="M38.6366 19.71C33.3118 17.7438 26.1056 27.5348 26.1456 33.2164C26.1927 39.9682 38.6766 42.6969 41.6535 43.5474C43.3246 44.0238 40.2048 35.2742 43.6677 30.0293C47.2679 24.5674 52.4311 24.3268 50.7459 24.0134C49.6668 23.812 45.1297 22.1069 38.6366 19.71Z" stroke="#02957D" stroke-opacity="0.08" stroke-width="0.662773" stroke-miterlimit="10"/>
<path d="M37.9631 18.788C32.2643 16.3413 24.4674 27.367 24.6388 33.5725C24.8437 41.0259 38.8747 42.2515 41.7421 44.5436C43.2289 45.7296 41.1194 35.9766 44.7613 30.006C48.5193 23.8493 53.5905 22.618 51.2583 22.7019C49.8093 22.7498 44.9689 21.7975 37.9631 18.788Z" stroke="#02957D" stroke-opacity="0.08" stroke-width="0.662773" stroke-miterlimit="10"/>
<path d="M37.2888 17.8661C31.217 14.9393 22.8333 27.1948 23.1312 33.9285C23.4967 42.0828 38.7014 42.645 41.8341 45.5302C43.3666 46.9421 42.0373 36.6718 45.8574 29.975C49.7697 23.1167 54.7197 20.8959 51.775 21.3813C49.9279 21.6862 44.8076 21.4894 37.2888 17.8661Z" stroke="#02957D" stroke-opacity="0.08" stroke-width="0.662773" stroke-miterlimit="10"/>
<path d="M36.6145 16.9438C30.1682 13.5397 21.1983 27.0302 21.624 34.2856C22.1475 43.1393 38.5454 43.0312 41.924 46.5225C43.5087 48.1592 42.957 37.37 46.9527 29.9491C51.0201 22.3945 55.8329 19.1847 52.2897 20.0663C50.0361 20.6259 44.6426 21.1836 36.6145 16.9438Z" stroke="#02957D" stroke-opacity="0.08" stroke-width="0.662773" stroke-miterlimit="10"/>
<path d="M35.9399 16.0217C29.1184 12.1412 19.56 26.8605 20.1165 34.643C20.7997 44.1971 38.4001 43.4169 42.013 47.5159C43.6549 49.3792 43.8756 38.0717 48.0462 29.924C52.2706 21.6717 56.9393 17.4808 52.8039 18.7516C50.1372 19.5693 44.4793 20.8805 35.9399 16.0217Z" stroke="#02957D" stroke-opacity="0.08" stroke-width="0.662773" stroke-miterlimit="10"/>
<path d="M35.2654 15.1C28.0623 10.7441 17.9256 26.6909 18.6102 34.9989C19.4518 45.2514 38.2685 43.7962 42.1043 48.506C43.8075 50.597 44.7965 38.7702 49.1415 29.8964C53.5238 20.947 58.0471 15.7792 53.319 17.4339C50.2366 18.5143 44.314 20.5776 35.2654 15.1Z" stroke="#02957D" stroke-opacity="0.08" stroke-width="0.662773" stroke-miterlimit="10"/>
<path d="M34.5911 14.1771C27.0166 9.34453 16.289 26.52 17.1029 35.3554C18.1085 46.3094 38.146 44.1794 42.1941 49.4976C43.9619 51.817 45.7183 39.4702 50.2368 29.8699C54.7775 20.2225 59.1484 14.0798 53.8336 16.1183C50.3336 17.4602 44.1468 20.2748 34.5911 14.1771Z" stroke="#02957D" stroke-opacity="0.08" stroke-width="0.662773" stroke-miterlimit="10"/>
<path d="M33.9168 13.2544C25.9653 7.94671 14.6579 26.3524 15.5957 35.7121C16.7638 47.3657 38.0215 44.5581 42.2855 50.4868C44.1177 53.0368 46.6387 40.1709 51.3327 29.8405C56.0322 19.4964 60.252 12.3806 54.3497 14.8002C50.4311 16.4078 43.9797 19.9723 33.9168 13.2544Z" stroke="#02957D" stroke-opacity="0.08" stroke-width="0.662773" stroke-miterlimit="10"/>
<path d="M33.2422 12.3325C24.9128 6.54917 13.0222 26.1867 14.0893 36.0678C15.4195 48.422 37.9049 44.94 42.3755 51.4808C44.2758 54.2612 47.5626 40.8698 52.4272 29.8159C57.2918 18.7621 61.3528 10.6868 54.865 13.4838C50.5273 15.3557 43.8117 19.6714 33.2422 12.3325Z" stroke="#02957D" stroke-opacity="0.08" stroke-width="0.662773" stroke-miterlimit="10"/>
<path d="M32.5689 11.41C23.861 5.15191 11.3919 26.0132 12.5822 36.4242C14.0738 49.4821 37.7912 45.3268 42.4655 52.4723C44.4352 55.4851 48.486 41.5693 53.5226 29.7894C58.5407 18.0502 62.4553 8.99383 55.3787 12.1699C50.6238 14.3047 43.6451 19.3699 32.5689 11.41Z" stroke="#02957D" stroke-opacity="0.08" stroke-width="0.662773" stroke-miterlimit="10"/>
<path d="M31.8945 10.4879C22.8082 3.7551 9.77858 25.8421 11.0775 36.7831C12.7596 50.5337 37.6869 45.7082 42.5585 53.4654C44.5971 56.7114 49.4118 42.2714 54.6196 29.7648C59.7979 17.3287 63.5598 7.30192 55.8964 10.8557C50.7193 13.2542 43.4745 19.0696 31.8945 10.4879Z" stroke="#02957D" stroke-opacity="0.08" stroke-width="0.662773" stroke-miterlimit="10"/>
<path d="M31.2199 9.5664C21.7552 2.3588 8.1441 25.6727 9.56893 37.1367C11.4092 51.5904 37.5786 46.0843 42.6469 54.4541C44.7568 57.9335 50.3336 42.9681 55.7136 29.7331C61.0536 16.5996 64.6604 5.60472 56.4111 9.53453C50.815 12.2033 43.3057 18.7685 31.2199 9.5664Z" stroke="#02957D" stroke-opacity="0.08" stroke-width="0.662773" stroke-miterlimit="10"/>
<path d="M30.5456 8.64359C20.6974 0.959577 6.50795 25.5032 8.06123 37.4943C10.0659 52.6402 37.4684 46.4735 42.7363 55.4468C44.92 59.1634 51.279 43.6794 56.8065 29.7089C62.3299 15.8881 65.7598 3.91503 56.9237 8.22264C50.9101 11.153 43.1352 18.4675 30.5456 8.64359Z" stroke="#02957D" stroke-opacity="0.08" stroke-width="0.662773" stroke-miterlimit="10"/>
<path d="M29.8716 7.72073C19.6331 -0.417286 4.87203 25.3338 6.55427 37.8508C8.71607 53.7016 37.3633 46.8582 42.8273 56.439C45.0787 60.3869 52.198 44.3765 57.902 29.6825C63.5811 15.1621 66.8604 2.22348 57.4381 6.90565C51.0053 10.1026 42.9469 18.1896 29.8716 7.72073Z" stroke="#02957D" stroke-opacity="0.08" stroke-width="0.662773" stroke-miterlimit="10"/>
<path d="M29.1966 6.79895C18.5822 -1.81832 3.23804 25.1646 5.04692 38.2075C7.36809 54.7573 37.2593 47.2427 42.917 57.4308C45.24 61.6135 53.1185 45.0726 58.9963 29.6558C64.832 14.4363 67.9621 0.531727 57.9525 5.59027C51.0949 9.05536 42.7803 17.8838 29.1966 6.79895Z" stroke="#02957D" stroke-opacity="0.08" stroke-width="0.662773" stroke-miterlimit="10"/>
<path d="M28.5227 5.87693C17.532 -3.21869 1.60143 24.9955 3.54069 38.564C6.02316 55.8115 37.1571 47.6299 43.0079 58.4224C45.4029 62.8413 54.0415 45.7763 60.0896 29.6324C66.0774 13.7113 69.0527 -1.17445 58.4666 4.27734C51.1884 7.99034 42.6148 17.5778 28.5227 5.87693Z" stroke="#02957D" stroke-opacity="0.08" stroke-width="0.662773" stroke-miterlimit="10"/>
<path d="M27.8483 4.95416C16.4828 -4.62253 -0.0380716 24.8255 2.03337 38.9207C4.67456 56.8703 37.0544 48.0162 43.0997 59.4106C45.5676 64.0662 54.9586 46.4679 61.1884 29.5998C67.3348 12.9844 70.1596 -2.85856 58.9831 2.95826C51.2861 6.94764 42.4479 17.2765 27.8483 4.95416Z" stroke="#02957D" stroke-opacity="0.08" stroke-width="0.662773" stroke-miterlimit="10"/>
<path d="M59.4969 1.64251C51.3846 5.90427 42.2814 16.9648 27.1736 4.03253C15.4298 -6.02123 -1.67038 24.6561 0.525388 39.2771C3.32723 57.9275 36.9519 48.4028 43.1881 60.4053C48.2304 70.1124 83.2208 -10.8218 59.4969 1.64251Z" stroke="#02957D" stroke-opacity="0.08" stroke-width="0.662773" stroke-miterlimit="10"/>
</svg>
