<svg width="59" height="59" viewBox="0 0 59 59" fill="none" xmlns="http://www.w3.org/2000/svg">
<path d="M29.5002 0C13.2751 0 0 13.2751 0 29.5002C0 45.7253 13.2751 59.0003 29.5002 59.0003C45.7253 59.0003 59.0003 45.7253 59.0003 29.5002C59.0003 13.2751 45.7253 0 29.5002 0ZM43.3652 32.4502C42.7752 33.3352 42.1852 34.2202 41.3002 34.5152L26.5501 43.0702C23.6001 44.8403 20.0601 43.6602 18.5851 41.0052C17.9951 40.1202 17.7001 39.2352 17.7001 38.0552V20.9451C17.7001 17.7001 20.3551 15.0451 23.6001 15.0451C24.7801 15.0451 25.6651 15.3401 26.5501 15.9301L41.3002 24.4851C44.2502 25.9601 45.1353 29.5002 43.3652 32.4502Z" fill="#0061FF"/>
</svg>
