<svg width="157" height="278" viewBox="0 0 157 278" fill="none" xmlns="http://www.w3.org/2000/svg">
<path fill-rule="evenodd" clip-rule="evenodd" d="M139 52.125C139 52.125 132.702 51.2649 130.312 43.4375L122.589 8.6875C122.589 3.88331 118.637 0 113.763 0H43.1595C38.2858 0 34.333 3.88331 34.333 8.6875L26.0625 43.4375C23.7429 53.4368 17.375 52.125 17.375 52.125V60.8125H139V52.125C137.497 51.986 139 52.125 139 52.125ZM17.375 225.875C18.8779 226.014 17.375 225.875 17.375 225.875C17.375 225.875 23.6734 226.726 26.0625 234.562L33.7857 269.312C33.7857 274.108 37.7385 278 42.6122 278H113.215C118.098 278 122.051 274.108 122.051 269.312L130.312 234.562C132.632 224.563 139 225.875 139 225.875V217.188H17.375V225.875Z" fill="#D6DAE2"/>
<path d="M130.312 52.125H26.0625C11.6673 52.125 0 63.7923 0 78.1875V199.812C0 214.199 11.6673 225.875 26.0625 225.875H130.312C144.699 225.875 156.375 214.199 156.375 199.812V78.1875C156.375 63.7923 144.699 52.125 130.312 52.125Z" fill="#333333"/>
<path d="M138.94 78.2051H17.4629V199.787H138.94V78.2051Z" fill="#4D4D4D"/>
<path d="M78.1875 156.375C87.7834 156.375 95.5625 148.596 95.5625 139C95.5625 129.404 87.7834 121.625 78.1875 121.625C68.5916 121.625 60.8125 129.404 60.8125 139C60.8125 148.596 68.5916 156.375 78.1875 156.375Z" fill="#EAF1F6"/>
<path d="M95.5625 112.938C100.36 112.938 104.25 109.048 104.25 104.25C104.25 99.452 100.36 95.5625 95.5625 95.5625C90.7645 95.5625 86.875 99.452 86.875 104.25C86.875 109.048 90.7645 112.938 95.5625 112.938Z" fill="#48A0DC"/>
<path d="M95.5625 182.438C100.36 182.438 104.25 178.548 104.25 173.75C104.25 168.952 100.36 165.062 95.5625 165.062C90.7645 165.062 86.875 168.952 86.875 173.75C86.875 178.548 90.7645 182.438 95.5625 182.438Z" fill="#FFCC66"/>
<path d="M112.938 147.688C117.735 147.688 121.625 143.798 121.625 139C121.625 134.202 117.735 130.312 112.938 130.312C108.14 130.312 104.25 134.202 104.25 139C104.25 143.798 108.14 147.688 112.938 147.688Z" fill="#88C057"/>
<path d="M43.4375 147.688C48.2355 147.688 52.125 143.798 52.125 139C52.125 134.202 48.2355 130.312 43.4375 130.312C38.6395 130.312 34.75 134.202 34.75 139C34.75 143.798 38.6395 147.688 43.4375 147.688Z" fill="#9B7CAB"/>
<path d="M60.8125 112.938C65.6105 112.938 69.5 109.048 69.5 104.25C69.5 99.452 65.6105 95.5625 60.8125 95.5625C56.0145 95.5625 52.125 99.452 52.125 104.25C52.125 109.048 56.0145 112.938 60.8125 112.938Z" fill="#FF8833"/>
<path d="M60.8125 182.438C65.6105 182.438 69.5 178.548 69.5 173.75C69.5 168.952 65.6105 165.062 60.8125 165.062C56.0145 165.062 52.125 168.952 52.125 173.75C52.125 178.548 56.0145 182.438 60.8125 182.438Z" fill="#F06EAA"/>
</svg>
