<svg width="144" height="24" viewBox="0 0 144 24" fill="none" xmlns="http://www.w3.org/2000/svg">
<path d="M18 2H15C13.6739 2 12.4021 2.52678 11.4645 3.46447C10.5268 4.40215 10 5.67392 10 7V10H7V14H10V22H14V14H17L18 10H14V7C14 6.73478 14.1054 6.48043 14.2929 6.29289C14.4804 6.10536 14.7348 6 15 6H18V2Z" stroke="#424C5D" stroke-width="2" stroke-linecap="round" stroke-linejoin="round"/>
<g clip-path="url(#clip0_170_13243)">
<path d="M62.5406 6.42C62.4218 5.94541 62.1799 5.51057 61.8392 5.15941C61.4986 4.80824 61.0713 4.55318 60.6006 4.42C58.8806 4 52.0006 4 52.0006 4C52.0006 4 45.1206 4 43.4006 4.46C42.9298 4.59318 42.5025 4.84824 42.1619 5.19941C41.8213 5.55057 41.5794 5.98541 41.4606 6.46C41.1458 8.20556 40.9918 9.97631 41.0006 11.75C40.9894 13.537 41.1433 15.3213 41.4606 17.08C41.5915 17.5398 41.8389 17.9581 42.1787 18.2945C42.5186 18.6308 42.9394 18.8738 43.4006 19C45.1206 19.46 52.0006 19.46 52.0006 19.46C52.0006 19.46 58.8806 19.46 60.6006 19C61.0713 18.8668 61.4986 18.6118 61.8392 18.2606C62.1799 17.9094 62.4218 17.4746 62.5406 17C62.8529 15.2676 63.0069 13.5103 63.0006 11.75C63.0118 9.96295 62.8578 8.1787 62.5406 6.42V6.42Z" stroke="#424C5D" stroke-width="2" stroke-linecap="round" stroke-linejoin="round"/>
<path d="M49.75 15.0205L55.5 11.7505L49.75 8.48047V15.0205Z" stroke="#424C5D" stroke-width="2" stroke-linecap="round" stroke-linejoin="round"/>
</g>
<path d="M96 8C97.5913 8 99.1174 8.63214 100.243 9.75736C101.368 10.8826 102 12.4087 102 14V21H98V14C98 13.4696 97.7893 12.9609 97.4142 12.5858C97.0391 12.2107 96.5304 12 96 12C95.4696 12 94.9609 12.2107 94.5858 12.5858C94.2107 12.9609 94 13.4696 94 14V21H90V14C90 12.4087 90.6321 10.8826 91.7574 9.75736C92.8826 8.63214 94.4087 8 96 8V8Z" stroke="#424C5D" stroke-width="2" stroke-linecap="round" stroke-linejoin="round"/>
<path d="M86 9H82V21H86V9Z" stroke="#424C5D" stroke-width="2" stroke-linecap="round" stroke-linejoin="round"/>
<path d="M84 6C85.1046 6 86 5.10457 86 4C86 2.89543 85.1046 2 84 2C82.8954 2 82 2.89543 82 4C82 5.10457 82.8954 6 84 6Z" stroke="#424C5D" stroke-width="2" stroke-linecap="round" stroke-linejoin="round"/>
<path d="M143 3.00029C142.042 3.67577 140.982 4.1924 139.86 4.53029C139.258 3.8378 138.457 3.34698 137.567 3.12422C136.677 2.90145 135.739 2.95749 134.882 3.28474C134.025 3.612 133.288 4.19469 132.773 4.95401C132.258 5.71332 131.988 6.61263 132 7.53029V8.53029C130.243 8.57586 128.501 8.1861 126.931 7.39574C125.361 6.60537 124.01 5.43893 123 4.00029C123 4.00029 119 13.0003 128 17.0003C125.941 18.3983 123.487 19.0992 121 19.0003C130 24.0003 141 19.0003 141 7.50029C140.999 7.22174 140.972 6.94388 140.92 6.67029C141.941 5.66378 142.661 4.393 143 3.00029V3.00029Z" stroke="#424C5D" stroke-width="2" stroke-linecap="round" stroke-linejoin="round"/>
<defs>
<clipPath id="clip0_170_13243">
<rect width="24" height="24" fill="white" transform="translate(40)"/>
</clipPath>
</defs>
</svg>
