<svg width="20" height="20" viewBox="0 0 20 20" fill="none" xmlns="http://www.w3.org/2000/svg">
<path d="M16.9507 7.76612L5.28403 1.93279C4.8236 1.70363 4.30371 1.62205 3.79522 1.69917C3.28674 1.77628 2.81441 2.00835 2.44264 2.36372C2.07086 2.71909 1.81774 3.18047 1.71777 3.68496C1.61781 4.18945 1.67586 4.7125 1.88403 5.18279L3.88403 9.65779C3.92941 9.76598 3.95278 9.88213 3.95278 9.99946C3.95278 10.1168 3.92941 10.2329 3.88403 10.3411L1.88403 14.8161C1.71461 15.1967 1.64299 15.6136 1.67568 16.0289C1.70836 16.4442 1.84431 16.8448 2.07118 17.1942C2.29805 17.5436 2.60863 17.8308 2.97471 18.0296C3.34079 18.2285 3.75076 18.3327 4.16736 18.3328C4.55755 18.3289 4.94194 18.2378 5.29236 18.0661L16.959 12.2328C17.3729 12.0246 17.7207 11.7055 17.9638 11.3112C18.2068 10.9168 18.3355 10.4627 18.3355 9.99946C18.3355 9.53621 18.2068 9.08208 17.9638 8.68772C17.7207 8.29337 17.3729 7.9743 16.959 7.76612H16.9507ZM16.209 10.7411L4.54236 16.5745C4.38916 16.648 4.21714 16.673 4.04935 16.646C3.88156 16.619 3.72603 16.5414 3.60362 16.4235C3.48121 16.3056 3.39776 16.1531 3.36447 15.9865C3.33118 15.8198 3.34963 15.647 3.41736 15.4911L5.40903 11.0161C5.43481 10.9564 5.45707 10.8951 5.47569 10.8328H11.2174C11.4384 10.8328 11.6503 10.745 11.8066 10.5887C11.9629 10.4324 12.0507 10.2205 12.0507 9.99946C12.0507 9.77844 11.9629 9.56648 11.8066 9.4102C11.6503 9.25392 11.4384 9.16612 11.2174 9.16612H5.47569C5.45707 9.10376 5.43481 9.04255 5.40903 8.98279L3.41736 4.50779C3.34963 4.35193 3.33118 4.17908 3.36447 4.01243C3.39776 3.84578 3.48121 3.69329 3.60362 3.57541C3.72603 3.45753 3.88156 3.3799 4.04935 3.35292C4.21714 3.32593 4.38916 3.3509 4.54236 3.42446L16.209 9.25779C16.3455 9.32772 16.4601 9.43397 16.5401 9.56483C16.6201 9.69569 16.6624 9.84608 16.6624 9.99946C16.6624 10.1528 16.6201 10.3032 16.5401 10.4341C16.4601 10.5649 16.3455 10.6712 16.209 10.7411Z" fill="#0061FF"/>
</svg>
