<svg width="32" height="32" viewBox="0 0 32 32" fill="none" xmlns="http://www.w3.org/2000/svg">
<path d="M27.0403 4.57302C26.3762 4.18001 25.6187 3.97266 24.847 3.97266C24.0753 3.97266 23.3178 4.18001 22.6537 4.57302L10.667 11.7864V7.99969C10.667 6.93882 10.2456 5.92141 9.49542 5.17126C8.74527 4.42112 7.72786 3.99969 6.66699 3.99969C5.60613 3.99969 4.58871 4.42112 3.83857 5.17126C3.08842 5.92141 2.66699 6.93882 2.66699 7.99969V23.9997C2.66699 25.0606 3.08842 26.078 3.83857 26.8281C4.58871 27.5783 5.60613 27.9997 6.66699 27.9997C7.72786 27.9997 8.74527 27.5783 9.49542 26.8281C10.2456 26.078 10.667 25.0606 10.667 23.9997V20.213L22.667 27.373C23.3434 27.7803 24.1174 27.9968 24.907 27.9997C25.6603 27.999 26.4003 27.8014 27.0537 27.4264C27.7607 27.0279 28.3469 26.4459 28.7506 25.7418C29.1543 25.0378 29.3603 24.2378 29.347 23.4264V8.55969C29.3566 7.74915 29.1474 6.95104 28.7414 6.24942C28.3355 5.54781 27.7478 4.96867 27.0403 4.57302ZM8.00033 23.9997C8.00033 24.3533 7.85985 24.6925 7.6098 24.9425C7.35975 25.1925 7.02061 25.333 6.66699 25.333C6.31337 25.333 5.97423 25.1925 5.72418 24.9425C5.47413 24.6925 5.33366 24.3533 5.33366 23.9997V7.99969C5.33366 7.64607 5.47413 7.30693 5.72418 7.05688C5.97423 6.80683 6.31337 6.66636 6.66699 6.66636C7.02061 6.66636 7.35975 6.80683 7.6098 7.05688C7.85985 7.30693 8.00033 7.64607 8.00033 7.99969V23.9997ZM26.667 23.4397C26.6746 23.7771 26.5906 24.1103 26.4239 24.4038C26.2572 24.6973 26.0141 24.9401 25.7203 25.1064C25.4633 25.263 25.168 25.3458 24.867 25.3458C24.566 25.3458 24.2707 25.263 24.0137 25.1064L11.5737 17.6397C11.2954 17.466 11.0659 17.2243 10.9067 16.9374C10.7476 16.6504 10.6641 16.3278 10.6641 15.9997C10.6641 15.6716 10.7476 15.3489 10.9067 15.062C11.0659 14.7751 11.2954 14.5334 11.5737 14.3597L24.0003 6.91969C24.2675 6.75095 24.5777 6.66298 24.8937 6.66636C25.1839 6.67094 25.4683 6.74891 25.7203 6.89302C26.0141 7.05929 26.2572 7.30208 26.4239 7.59557C26.5906 7.88906 26.6746 8.22225 26.667 8.55969V23.4397Z" fill="#0061FF"/>
</svg>
