<svg width="20" height="20" viewBox="0 0 20 20" fill="none" xmlns="http://www.w3.org/2000/svg">
<path d="M4.69935 14.167L4.10768 14.7587C3.95247 14.9148 3.86536 15.126 3.86536 15.3462C3.86536 15.5663 3.95247 15.7775 4.10768 15.9337C4.26382 16.0889 4.47503 16.176 4.69518 16.176C4.91534 16.176 5.12655 16.0889 5.28268 15.9337L5.87435 15.342C6.01087 15.1826 6.08221 14.9775 6.07411 14.7678C6.06601 14.5581 5.97906 14.3591 5.83065 14.2107C5.68224 14.0623 5.48329 13.9753 5.27356 13.9672C5.06383 13.9591 4.85877 14.0305 4.69935 14.167ZM4.16602 10.0003C4.16602 9.77931 4.07822 9.56735 3.92194 9.41107C3.76566 9.25479 3.5537 9.16699 3.33268 9.16699H2.49935C2.27834 9.16699 2.06637 9.25479 1.91009 9.41107C1.75381 9.56735 1.66602 9.77931 1.66602 10.0003C1.66602 10.2213 1.75381 10.4333 1.91009 10.5896C2.06637 10.7459 2.27834 10.8337 2.49935 10.8337H3.33268C3.5537 10.8337 3.76566 10.7459 3.92194 10.5896C4.07822 10.4333 4.16602 10.2213 4.16602 10.0003ZM9.99935 4.16699C10.2204 4.16699 10.4323 4.07919 10.5886 3.92291C10.7449 3.76663 10.8327 3.55467 10.8327 3.33366V2.50033C10.8327 2.27931 10.7449 2.06735 10.5886 1.91107C10.4323 1.75479 10.2204 1.66699 9.99935 1.66699C9.77834 1.66699 9.56637 1.75479 9.41009 1.91107C9.25381 2.06735 9.16602 2.27931 9.16602 2.50033V3.33366C9.16602 3.55467 9.25381 3.76663 9.41009 3.92291C9.56637 4.07919 9.77834 4.16699 9.99935 4.16699ZM4.69935 5.87533C4.85457 6.02928 5.06407 6.11607 5.28268 6.11699C5.39235 6.11763 5.50107 6.09661 5.6026 6.05514C5.70414 6.01366 5.79648 5.95256 5.87435 5.87533C6.02956 5.71919 6.11668 5.50798 6.11668 5.28783C6.11668 5.06767 6.02956 4.85646 5.87435 4.70033L5.28268 4.10866C5.12326 3.97214 4.9182 3.9008 4.70847 3.9089C4.49874 3.917 4.29979 4.00394 4.15138 4.15236C4.00297 4.30077 3.91602 4.49972 3.90792 4.70945C3.89982 4.91918 3.97116 5.12424 4.10768 5.28366L4.69935 5.87533ZM14.6993 6.11699C14.918 6.11607 15.1275 6.02928 15.2827 5.87533L15.8743 5.28366C15.9616 5.20895 16.0324 5.11702 16.0825 5.01363C16.1325 4.91025 16.1606 4.79764 16.165 4.68287C16.1694 4.5681 16.1501 4.45366 16.1082 4.34672C16.0663 4.23979 16.0028 4.14266 15.9216 4.06145C15.8403 3.98024 15.7432 3.91669 15.6363 3.87479C15.5293 3.8329 15.4149 3.81356 15.3001 3.81799C15.1854 3.82243 15.0728 3.85053 14.9694 3.90055C14.866 3.95057 14.7741 4.02142 14.6993 4.10866L14.166 4.70033C14.0108 4.85646 13.9237 5.06767 13.9237 5.28783C13.9237 5.50798 14.0108 5.71919 14.166 5.87533C14.3129 6.02146 14.509 6.10762 14.716 6.11699H14.6993ZM17.4993 9.16699H16.666C16.445 9.16699 16.233 9.25479 16.0768 9.41107C15.9205 9.56735 15.8327 9.77931 15.8327 10.0003C15.8327 10.2213 15.9205 10.4333 16.0768 10.5896C16.233 10.7459 16.445 10.8337 16.666 10.8337H17.4993C17.7204 10.8337 17.9323 10.7459 18.0886 10.5896C18.2449 10.4333 18.3327 10.2213 18.3327 10.0003C18.3327 9.77931 18.2449 9.56735 18.0886 9.41107C17.9323 9.25479 17.7204 9.16699 17.4993 9.16699ZM9.99935 15.8337C9.77834 15.8337 9.56637 15.9215 9.41009 16.0777C9.25381 16.234 9.16602 16.446 9.16602 16.667V17.5003C9.16602 17.7213 9.25381 17.9333 9.41009 18.0896C9.56637 18.2459 9.77834 18.3337 9.99935 18.3337C10.2204 18.3337 10.4323 18.2459 10.5886 18.0896C10.7449 17.9333 10.8327 17.7213 10.8327 17.5003V16.667C10.8327 16.446 10.7449 16.234 10.5886 16.0777C10.4323 15.9215 10.2204 15.8337 9.99935 15.8337ZM15.2993 14.167C15.141 14.0789 14.9583 14.0449 14.7789 14.0699C14.5995 14.095 14.4331 14.1779 14.305 14.306C14.1769 14.4341 14.094 14.6005 14.069 14.7799C14.0439 14.9593 14.078 15.142 14.166 15.3003L14.7577 15.892C14.9138 16.0472 15.125 16.1343 15.3452 16.1343C15.5653 16.1343 15.7765 16.0472 15.9327 15.892C16.0879 15.7359 16.175 15.5246 16.175 15.3045C16.175 15.0843 16.0879 14.8731 15.9327 14.717L15.2993 14.167ZM9.99935 5.41699C9.09285 5.41699 8.20671 5.6858 7.45299 6.18942C6.69926 6.69305 6.1118 7.40886 5.7649 8.24636C5.418 9.08385 5.32723 10.0054 5.50408 10.8945C5.68093 11.7836 6.11745 12.6002 6.75844 13.2412C7.39943 13.8822 8.21611 14.3187 9.10519 14.4956C9.99426 14.6724 10.9158 14.5817 11.7533 14.2348C12.5908 13.8879 13.3066 13.3004 13.8103 12.5467C14.3139 11.793 14.5827 10.9068 14.5827 10.0003C14.5805 8.78543 14.0969 7.62092 13.2378 6.76185C12.3788 5.90279 11.2142 5.4192 9.99935 5.41699ZM9.99935 12.917C9.42249 12.917 8.85858 12.7459 8.37894 12.4254C7.89929 12.105 7.52546 11.6494 7.3047 11.1165C7.08394 10.5835 7.02619 9.99709 7.13873 9.43131C7.25127 8.86553 7.52905 8.34583 7.93695 7.93793C8.34486 7.53003 8.86456 7.25224 9.43034 7.1397C9.99611 7.02716 10.5826 7.08492 11.1155 7.30568C11.6485 7.52643 12.104 7.90027 12.4245 8.37991C12.745 8.85956 12.916 9.42346 12.916 10.0003C12.916 10.7739 12.6087 11.5157 12.0617 12.0627C11.5148 12.6097 10.7729 12.917 9.99935 12.917Z" fill="#75839D"/>
</svg>
