<svg width="32" height="32" viewBox="0 0 32 32" fill="none" xmlns="http://www.w3.org/2000/svg">
<path d="M7.33366 23.3328H5.33366V8.6661H15.7337L14.667 9.71943C14.4159 9.96873 14.2742 10.3076 14.2729 10.6614C14.2717 11.0152 14.411 11.355 14.6603 11.6061C14.9096 11.8572 15.2485 11.9989 15.6023 12.0002C15.9561 12.0014 16.2959 11.8621 16.547 11.6128L19.8803 8.27943C20.0053 8.15548 20.1045 8.00801 20.1722 7.84553C20.2399 7.68305 20.2747 7.50878 20.2747 7.33276C20.2747 7.15675 20.2399 6.98247 20.1722 6.81999C20.1045 6.65751 20.0053 6.51005 19.8803 6.3861L16.547 3.05276C16.2972 2.80443 15.9592 2.66504 15.607 2.66504C15.2547 2.66504 14.9168 2.80443 14.667 3.05276C14.542 3.17671 14.4428 3.32418 14.3751 3.48666C14.3074 3.64914 14.2726 3.82341 14.2726 3.99943C14.2726 4.17545 14.3074 4.34972 14.3751 4.5122C14.4428 4.67468 14.542 4.82215 14.667 4.9461L15.7203 5.99943H4.00033C3.6467 5.99943 3.30756 6.13991 3.05752 6.38995C2.80747 6.64 2.66699 6.97914 2.66699 7.33276V24.6661C2.66699 25.0197 2.80747 25.3589 3.05752 25.6089C3.30756 25.859 3.6467 25.9994 4.00033 25.9994H7.33366C7.68728 25.9994 8.02642 25.859 8.27647 25.6089C8.52652 25.3589 8.66699 25.0197 8.66699 24.6661C8.66699 24.3125 8.52652 23.9733 8.27647 23.7233C8.02642 23.4732 7.68728 23.3328 7.33366 23.3328ZM28.0003 5.99943H24.667C24.3134 5.99943 23.9742 6.13991 23.7242 6.38995C23.4741 6.64 23.3337 6.97914 23.3337 7.33276C23.3337 7.68638 23.4741 8.02552 23.7242 8.27557C23.9742 8.52562 24.3134 8.6661 24.667 8.6661H26.667V23.3328H15.507L16.5603 22.2794C16.6853 22.1555 16.7845 22.008 16.8522 21.8455C16.9199 21.6831 16.9547 21.5088 16.9547 21.3328C16.9547 21.1567 16.9199 20.9825 16.8522 20.82C16.7845 20.6575 16.6853 20.51 16.5603 20.3861C16.3105 20.1378 15.9726 19.9984 15.6203 19.9984C15.2681 19.9984 14.9301 20.1378 14.6803 20.3861L11.347 23.7194C11.222 23.8434 11.1228 23.9909 11.0551 24.1533C10.9874 24.3158 10.9526 24.4901 10.9526 24.6661C10.9526 24.8421 10.9874 25.0164 11.0551 25.1789C11.1228 25.3413 11.222 25.4888 11.347 25.6128L14.6803 28.9461C14.9314 29.1954 15.2712 29.3348 15.625 29.3335C15.9789 29.3323 16.3177 29.1905 16.567 28.9394C16.8163 28.6884 16.9557 28.3485 16.9544 27.9947C16.9532 27.6409 16.8114 27.3021 16.5603 27.0528L15.507 25.9994H28.0003C28.3539 25.9994 28.6931 25.859 28.9431 25.6089C29.1932 25.3589 29.3337 25.0197 29.3337 24.6661V7.33276C29.3337 6.97914 29.1932 6.64 28.9431 6.38995C28.6931 6.13991 28.3539 5.99943 28.0003 5.99943Z" fill="#0061FF"/>
</svg>
