<svg width="15" height="11" viewBox="0 0 15 11" fill="none" xmlns="http://www.w3.org/2000/svg">
<path d="M14.6555 0.315694C14.5563 0.215661 14.4383 0.136263 14.3082 0.0820794C14.1782 0.027896 14.0387 0 13.8978 0C13.7569 0 13.6174 0.027896 13.4873 0.0820794C13.3573 0.136263 13.2392 0.215661 13.14 0.315694L5.18893 8.27745L1.84841 4.92625C1.7454 4.82675 1.62379 4.7485 1.49054 4.69599C1.35729 4.64347 1.215 4.61772 1.07179 4.6202C0.928584 4.62268 0.787269 4.65333 0.655912 4.71043C0.524556 4.76752 0.40573 4.84992 0.306221 4.95294C0.206711 5.05595 0.128466 5.17755 0.0759525 5.31081C0.0234391 5.44406 -0.0023144 5.58635 0.000163204 5.72956C0.00264081 5.87276 0.0333008 6.01408 0.0903923 6.14543C0.147484 6.27679 0.229889 6.39562 0.332902 6.49513L4.43118 10.5934C4.5304 10.6934 4.64844 10.7728 4.77849 10.827C4.90855 10.8812 5.04804 10.9091 5.18893 10.9091C5.32983 10.9091 5.46932 10.8812 5.59938 10.827C5.72943 10.7728 5.84747 10.6934 5.94669 10.5934L14.6555 1.88457C14.7639 1.78462 14.8503 1.66333 14.9094 1.52832C14.9686 1.39331 14.9991 1.24752 14.9991 1.10013C14.9991 0.952739 14.9686 0.806946 14.9094 0.671938C14.8503 0.53693 14.7639 0.415634 14.6555 0.315694Z" fill="white"/>
</svg>
