<svg width="32" height="32" viewBox="0 0 32 32" fill="none" xmlns="http://www.w3.org/2000/svg">
<path d="M27.9997 18.6667C27.6461 18.6667 27.3069 18.8072 27.0569 19.0573C26.8068 19.3073 26.6663 19.6465 26.6663 20.0001L26.6663 24.7867L20.5863 18.6667C20.462 18.5377 20.3128 18.4351 20.1479 18.365C19.983 18.2948 19.8056 18.2587 19.6263 18.2587C19.4471 18.2587 19.2697 18.2948 19.1048 18.365C18.9398 18.4351 18.7907 18.5377 18.6663 18.6667C18.418 18.9166 18.2786 19.2545 18.2786 19.6067C18.2786 19.959 18.418 20.2969 18.6663 20.5467L24.7863 26.6667L19.9997 26.6667C19.6461 26.6667 19.3069 26.8072 19.0569 27.0573C18.8068 27.3073 18.6663 27.6465 18.6663 28.0001C18.6663 28.3537 18.8068 28.6928 19.0569 28.9429C19.3069 29.1929 19.6461 29.3334 19.9997 29.3334L27.9997 29.3334C28.1739 29.3313 28.346 29.2951 28.5063 29.2267C28.8321 29.0914 29.091 28.8325 29.2263 28.5067C29.2947 28.3464 29.3309 28.1743 29.333 28.0001L29.333 20.0001C29.333 19.6465 29.1925 19.3073 28.9425 19.0573C28.6924 18.8072 28.3533 18.6667 27.9997 18.6667ZM11.5997 13.3334C11.8547 13.5518 12.1828 13.666 12.5184 13.653C12.854 13.6401 13.1723 13.501 13.4098 13.2635C13.6472 13.026 13.7863 12.7077 13.7993 12.3722C13.8123 12.0366 13.6981 11.7085 13.4797 11.4534L5.11967 3.08008C4.99509 2.95651 4.84733 2.85874 4.68488 2.79239C4.52243 2.72603 4.34848 2.6924 4.17301 2.69342C3.99753 2.6924 3.82358 2.72603 3.66113 2.79239C3.49868 2.85874 3.35093 2.95651 3.22634 3.08008C3.10137 3.20403 3.00218 3.3515 2.93449 3.51398C2.86679 3.67646 2.83194 3.85073 2.83194 4.02675C2.83194 4.20276 2.86679 4.37704 2.93449 4.53952C3.00218 4.702 3.10137 4.84946 3.22634 4.97342L11.5997 13.3334ZM19.9997 5.33341L24.7863 5.33341L3.05301 27.0534C2.80194 27.3045 2.66089 27.645 2.66089 28.0001C2.66089 28.3551 2.80194 28.6957 3.05301 28.9467C3.30408 29.1978 3.64461 29.3389 3.99968 29.3389C4.35474 29.3389 4.69527 29.1978 4.94634 28.9467L26.6663 7.21341L26.6663 12.0001C26.6663 12.3537 26.8068 12.6928 27.0569 12.9429C27.3069 13.1929 27.6461 13.3334 27.9997 13.3334C28.3533 13.3334 28.6924 13.1929 28.9425 12.9429C29.1925 12.6928 29.333 12.3537 29.333 12.0001L29.333 4.00008C29.3309 3.82584 29.2947 3.65371 29.2263 3.49341C29.091 3.16762 28.8321 2.90871 28.5063 2.77341C28.346 2.70509 28.1739 2.66885 27.9997 2.66675L19.9997 2.66675C19.6461 2.66675 19.3069 2.80722 19.0569 3.05727C18.8068 3.30732 18.6663 3.64646 18.6663 4.00008C18.6663 4.3537 18.8068 4.69284 19.0569 4.94289C19.3069 5.19294 19.6461 5.33341 19.9997 5.33341Z" fill="#0061FF"/>
</svg>
