<svg width="32" height="32" viewBox="0 0 32 32" fill="none" xmlns="http://www.w3.org/2000/svg">
<path d="M25.3343 4C24.2734 4 23.256 4.42143 22.5058 5.17157C21.7557 5.92172 21.3343 6.93913 21.3343 8V11.7867L9.33427 4.62667C8.6711 4.2309 7.91321 4.02195 7.14093 4.02195C6.36865 4.02195 5.61076 4.2309 4.9476 4.62667C4.25305 5.02137 3.67589 5.59361 3.27526 6.28476C2.87463 6.97591 2.66491 7.76113 2.6676 8.56V23.44C2.65428 24.2515 2.86033 25.0514 3.26399 25.7555C3.66765 26.4595 4.25393 27.0415 4.96093 27.44C5.61554 27.8104 6.3555 28.0034 7.1076 28C7.89261 27.9947 8.66174 27.7783 9.33427 27.3733L21.3343 20.2133V24C21.3343 25.0609 21.7557 26.0783 22.5058 26.8284C23.256 27.5786 24.2734 28 25.3343 28C26.3951 28 27.4125 27.5786 28.1627 26.8284C28.9128 26.0783 29.3343 25.0609 29.3343 24V8C29.3343 6.93913 28.9128 5.92172 28.1627 5.17157C27.4125 4.42143 26.3951 4 25.3343 4ZM20.4276 17.64L8.00093 25.08C7.74386 25.2366 7.44863 25.3195 7.1476 25.3195C6.84657 25.3195 6.55134 25.2366 6.29427 25.08C6.00206 24.9176 5.75882 24.6798 5.58995 24.3913C5.42108 24.1028 5.33278 23.7743 5.33427 23.44V8.56C5.32664 8.22256 5.41064 7.88937 5.57734 7.59588C5.74404 7.30239 5.9872 7.0596 6.28093 6.89333C6.53294 6.74923 6.81733 6.67125 7.1076 6.66667C7.42356 6.66329 7.73378 6.75126 8.00093 6.92L20.4409 14.36C20.7192 14.5337 20.9487 14.7754 21.1079 15.0623C21.267 15.3492 21.3505 15.6719 21.3505 16C21.3505 16.3281 21.267 16.6508 21.1079 16.9377C20.9487 17.2246 20.7192 17.4663 20.4409 17.64H20.4276ZM26.6676 24C26.6676 24.3536 26.5271 24.6928 26.2771 24.9428C26.027 25.1929 25.6879 25.3333 25.3343 25.3333C24.9806 25.3333 24.6415 25.1929 24.3915 24.9428C24.1414 24.6928 24.0009 24.3536 24.0009 24V8C24.0009 7.64638 24.1414 7.30724 24.3915 7.05719C24.6415 6.80714 24.9806 6.66667 25.3343 6.66667C25.6879 6.66667 26.027 6.80714 26.2771 7.05719C26.5271 7.30724 26.6676 7.64638 26.6676 8V24Z" fill="#0061FF"/>
</svg>
