<svg width="20" height="20" viewBox="0 0 20 20" fill="none" xmlns="http://www.w3.org/2000/svg">
<path d="M9.99935 1.66699C8.35118 1.66699 6.74001 2.15573 5.3696 3.07141C3.99919 3.98709 2.93109 5.28858 2.30036 6.8113C1.66963 8.33401 1.5046 10.0096 1.82614 11.6261C2.14769 13.2426 2.94136 14.7274 4.1068 15.8929C5.27223 17.0583 6.75709 17.852 8.3736 18.1735C9.99011 18.4951 11.6657 18.3301 13.1884 17.6993C14.7111 17.0686 16.0126 16.0005 16.9283 14.6301C17.8439 13.2597 18.3327 11.6485 18.3327 10.0003C18.3327 8.90598 18.1171 7.82234 17.6983 6.8113C17.2796 5.80025 16.6657 4.88159 15.8919 4.10777C15.1181 3.33395 14.1994 2.72012 13.1884 2.30133C12.1773 1.88254 11.0937 1.66699 9.99935 1.66699ZM9.99935 16.667C8.68081 16.667 7.39188 16.276 6.29555 15.5435C5.19922 14.8109 4.34474 13.7697 3.84016 12.5515C3.33557 11.3334 3.20355 9.99293 3.46078 8.69972C3.71802 7.40652 4.35296 6.21863 5.28531 5.28628C6.21766 4.35393 7.40554 3.71899 8.69875 3.46176C9.99196 3.20452 11.3324 3.33654 12.5506 3.84113C13.7687 4.34571 14.8099 5.2002 15.5425 6.29652C16.275 7.39285 16.666 8.68178 16.666 10.0003C16.666 11.7684 15.9636 13.4641 14.7134 14.7144C13.4632 15.9646 11.7675 16.667 9.99935 16.667ZM13.3327 9.16699H10.8327V6.66699C10.8327 6.44598 10.7449 6.23402 10.5886 6.07774C10.4323 5.92146 10.2204 5.83366 9.99935 5.83366C9.77834 5.83366 9.56638 5.92146 9.4101 6.07774C9.25382 6.23402 9.16602 6.44598 9.16602 6.66699V9.16699H6.66602C6.44501 9.16699 6.23304 9.25479 6.07676 9.41107C5.92048 9.56735 5.83269 9.77931 5.83269 10.0003C5.83269 10.2213 5.92048 10.4333 6.07676 10.5896C6.23304 10.7459 6.44501 10.8337 6.66602 10.8337H9.16602V13.3337C9.16602 13.5547 9.25382 13.7666 9.4101 13.9229C9.56638 14.0792 9.77834 14.167 9.99935 14.167C10.2204 14.167 10.4323 14.0792 10.5886 13.9229C10.7449 13.7666 10.8327 13.5547 10.8327 13.3337V10.8337H13.3327C13.5537 10.8337 13.7657 10.7459 13.9219 10.5896C14.0782 10.4333 14.166 10.2213 14.166 10.0003C14.166 9.77931 14.0782 9.56735 13.9219 9.41107C13.7657 9.25479 13.5537 9.16699 13.3327 9.16699Z" fill="#75839D"/>
</svg>
